<svg width="39" height="39" viewBox="0 0 39 39" fill="none" xmlns="http://www.w3.org/2000/svg">
<g filter="url(#filter0_d_31_2720)">
<path d="M19.0009 31.0018C26.7334 31.0018 33.0018 24.7334 33.0018 17.0009C33.0018 9.26842 26.7334 3 19.0009 3C11.2684 3 5 9.26842 5 17.0009C5 24.7334 11.2684 31.0018 19.0009 31.0018Z" fill="#F6D738"/>
<path d="M19.0009 28.8837C25.5636 28.8837 30.8837 23.5636 30.8837 17.0009C30.8837 10.4383 25.5636 5.11816 19.0009 5.11816C12.4383 5.11816 7.11816 10.4383 7.11816 17.0009C7.11816 23.5636 12.4383 28.8837 19.0009 28.8837Z" fill="#F3CC30"/>
<path d="M25.2169 6.8598C26.3993 8.70746 27.0865 10.9042 27.0865 13.2599C27.0865 19.8227 21.7664 25.1427 15.2037 25.1427C12.9247 25.1427 10.7956 24.5012 8.98633 23.3882C11.0972 26.6851 14.7925 28.8709 18.9995 28.8709C25.5623 28.8709 30.8823 23.5509 30.8823 16.9881C30.8823 12.7043 28.6161 8.95235 25.2169 6.86163V6.8598Z" fill="#EDBD31"/>
<path d="M9.20016 18.0883C9.20016 12.2949 13.897 7.59994 19.6885 7.59994C23.075 7.59994 26.085 9.20454 28.0021 11.6955C26.191 8.5521 22.7954 6.43396 18.9063 6.43396C13.113 6.43396 8.41797 11.1308 8.41797 16.9223C8.41797 19.3292 9.2294 21.546 10.5928 23.3169C9.7064 21.7781 9.19834 19.9926 9.19834 18.0901L9.20016 18.0883Z" fill="#F7DB5E"/>
<path d="M19.9804 9.33063V10.8438C20.5871 10.9425 21.0842 11.1417 21.4717 11.4469C21.8573 11.7503 22.2264 12.2163 22.5755 12.845L21.0696 13.6875C20.6164 12.8633 20.0242 12.4521 19.2932 12.4521C18.84 12.4521 18.4635 12.5855 18.1656 12.8542C17.8677 13.1228 17.7179 13.4573 17.7179 13.8575C17.7179 14.223 17.8385 14.5264 18.0815 14.7694C18.3191 15.007 18.7979 15.2866 19.518 15.6119C20.1412 15.8952 20.6566 16.162 21.0623 16.4106C21.4698 16.661 21.775 16.9004 21.9815 17.1325C22.5627 17.7611 22.8551 18.5196 22.8551 19.4114C22.8551 20.3033 22.592 21.0599 22.0674 21.7288C21.5466 22.3922 20.8521 22.8418 19.9822 23.072V24.6711H18.6298V23.1195C17.621 22.9551 16.8516 22.6078 16.3198 22.0778C15.7898 21.5478 15.3987 20.7291 15.1465 19.6216L16.8461 19.2671C17.0782 20.0493 17.3615 20.6085 17.6959 20.9429C18.0468 21.2627 18.511 21.4217 19.094 21.4217C19.677 21.4217 20.1339 21.239 20.5158 20.8735C20.8923 20.5134 21.0806 20.0474 21.0806 19.4754C21.0806 18.9655 20.9234 18.5561 20.6091 18.2473C20.4501 18.0974 20.2143 17.9293 19.9018 17.741C19.5911 17.5528 19.1927 17.3481 18.7084 17.127C17.7087 16.6792 17.0526 16.268 16.7383 15.8916C16.2394 15.3305 15.989 14.658 15.989 13.8758C15.989 13.5048 16.0475 13.1594 16.1663 12.8414C16.2851 12.5215 16.455 12.2328 16.6798 11.9733C16.9046 11.7138 17.1806 11.489 17.5095 11.2971C17.8385 11.107 18.2131 10.9572 18.6298 10.8493V9.33611H19.9822L19.9804 9.33063Z" fill="#D49A34"/>
</g>
<defs>
<filter id="filter0_d_31_2720" x="0" y="0" width="38.002" height="38.0018" filterUnits="userSpaceOnUse" color-interpolation-filters="sRGB">
<feFlood flood-opacity="0" result="BackgroundImageFix"/>
<feColorMatrix in="SourceAlpha" type="matrix" values="0 0 0 0 0 0 0 0 0 0 0 0 0 0 0 0 0 0 127 0" result="hardAlpha"/>
<feOffset dy="2"/>
<feGaussianBlur stdDeviation="2.5"/>
<feComposite in2="hardAlpha" operator="out"/>
<feColorMatrix type="matrix" values="0 0 0 0 0 0 0 0 0 0 0 0 0 0 0 0 0 0 0.25 0"/>
<feBlend mode="normal" in2="BackgroundImageFix" result="effect1_dropShadow_31_2720"/>
<feBlend mode="normal" in="SourceGraphic" in2="effect1_dropShadow_31_2720" result="shape"/>
</filter>
</defs>
</svg>
